<svg width="746" height="376" viewBox="0 0 746 376" fill="none" xmlns="http://www.w3.org/2000/svg">
<path d="M735.481 376H10.5186C4.67492 376 0 371.333 0 365.5C0 359.667 4.67492 355 10.5186 355H735.481C741.325 355 746 359.667 746 365.5C746 371.333 741.325 376 735.481 376Z" fill="#FE7040"/>
<path d="M147.256 267.882C136.016 267.882 127 258.666 127 247.441C127 236.216 136.133 227 147.256 227H262V268H147.256V267.882Z" fill="#CECECE"/>
<path d="M268 275H147.153C132.12 275 120 262.607 120 247.5C120 232.275 132.236 220 147.153 220H268V275Z" fill="white"/>
<path d="M140 241H262" stroke="#1F3969" stroke-width="4" stroke-miterlimit="10" stroke-linecap="round" stroke-linejoin="round"/>
<path d="M140 253H262" stroke="#1F3969" stroke-width="4" stroke-miterlimit="10" stroke-linecap="round" stroke-linejoin="round"/>
<path d="M147.256 267.882C136.016 267.882 127 258.666 127 247.441C127 236.216 136.133 227 147.256 227H262V268H147.256V267.882Z" stroke="#1F3969" stroke-width="4" stroke-miterlimit="10" stroke-linecap="round" stroke-linejoin="round"/>
<path d="M147.153 267.918C135.965 267.918 126.992 258.712 126.992 247.5C126.992 236.288 136.082 227.082 147.153 227.082H263.339L268 220H147.153C132.12 220 120 232.393 120 247.5C120 262.725 132.236 275 147.153 275H268L263.339 267.918H147.153Z" fill="#FF3E3E"/>
<path d="M147.153 267.918C135.965 267.918 126.992 258.712 126.992 247.5C126.992 236.288 136.082 227.082 147.153 227.082H263.339L268 220H147.153C132.12 220 120 232.393 120 247.5C120 262.725 132.236 275 147.153 275H268L263.339 267.918H147.153Z" stroke="#1F3969" stroke-width="4" stroke-miterlimit="10" stroke-linecap="round" stroke-linejoin="round"/>
<path opacity="0.28" d="M242 220H221V275H242V220Z" fill="#1F3969" stroke="#1F3969" stroke-width="4" stroke-miterlimit="10" stroke-linecap="round" stroke-linejoin="round"/>
<path d="M256.047 320H33.9528C29.6256 320 26 316.503 26 312.073V282.927C26 278.614 29.5086 275 33.9528 275H256.047C260.374 275 264 278.497 264 282.927V312.073C264 316.503 260.491 320 256.047 320Z" fill="#50B56F"/>
<path d="M256.047 320H33.9528C29.6256 320 26 316.503 26 312.073V282.927C26 278.614 29.5086 275 33.9528 275H256.047C260.374 275 264 278.497 264 282.927V312.073C264 316.503 260.491 320 256.047 320Z" stroke="#1F3969" stroke-width="4" stroke-miterlimit="10" stroke-linecap="round" stroke-linejoin="round"/>
<path opacity="0.28" d="M256.054 275H221V292.29C221 303.125 229.88 312 240.981 312H264C264 311.885 264 311.769 264 311.654V282.838C264 278.458 260.495 275 256.054 275Z" fill="#1F3969" stroke="#1F3969" stroke-width="4" stroke-miterlimit="10" stroke-linecap="round" stroke-linejoin="round"/>
<path d="M318 329H61C62.5186 332.649 63.3364 337.211 63.3364 342C63.3364 346.789 62.5186 351.237 61 355H317.883C316.365 351.351 315.547 346.789 315.547 342C315.664 337.097 316.481 332.649 318 329Z" fill="#CECECE"/>
<path d="M325 322H54V329H325V322Z" fill="#5F5AFF"/>
<path d="M325 322H54V329H325V322Z" stroke="#1F3969" stroke-width="4" stroke-miterlimit="10" stroke-linecap="round" stroke-linejoin="round"/>
<path d="M325 355H54V362H325V355Z" fill="#F6F9FD"/>
<path d="M325 355H54V362H325V355Z" fill="#5F5AFF"/>
<path d="M325 355H54V362H325V355Z" stroke="#1F3969" stroke-width="4" stroke-miterlimit="10" stroke-linecap="round" stroke-linejoin="round"/>
<path d="M459.988 337.143L456.469 298H398.531L395.012 337.143C394.191 346.203 388.679 354.915 380 361.884V362H475V361.884C466.321 354.915 460.809 346.203 459.988 337.143Z" fill="#BFCFE2"/>
<path opacity="0.28" d="M399.106 298L397 322H459L456.894 298H399.106Z" fill="#1F3969" stroke="#1F3969" stroke-width="4" stroke-miterlimit="10" stroke-linecap="round" stroke-linejoin="round"/>
<path d="M459.988 337.143L456.469 298H398.531L395.012 337.143C394.191 346.203 388.679 354.915 380 361.884V362H475V361.884C466.321 354.915 460.809 346.203 459.988 337.143Z" stroke="#1F3969" stroke-width="4" stroke-miterlimit="10" stroke-linecap="round" stroke-linejoin="round"/>
<path d="M611.988 304H243.012C235.305 304 229 297.684 229 289.965V49.0348C229 41.3157 235.305 35 243.012 35H611.988C619.695 35 626 41.3157 626 49.0348V289.965C626 297.801 619.695 304 611.988 304Z" fill="white"/>
<path d="M611.988 304H243.012C235.305 304 229 297.684 229 289.965V49.0348C229 41.3157 235.305 35 243.012 35H611.988C619.695 35 626 41.3157 626 49.0348V289.965C626 297.801 619.695 304 611.988 304Z" fill="#BFCFE2"/>
<path d="M611.988 304H243.012C235.305 304 229 297.684 229 289.965V49.0348C229 41.3157 235.305 35 243.012 35H611.988C619.695 35 626 41.3157 626 49.0348V289.965C626 297.801 619.695 304 611.988 304Z" stroke="#1F3969" stroke-width="4" stroke-miterlimit="10" stroke-linecap="round" stroke-linejoin="round"/>
<path d="M607 259V55H249V259H607Z" fill="#F6F9FD"/>
<path opacity="0.28" d="M262 35V196.669C262 201.801 266.195 206 271.322 206H491.678C496.805 206 501 201.801 501 196.669V35H262Z" fill="#1F3969" stroke="#1F3969" stroke-width="4" stroke-miterlimit="10" stroke-linecap="round" stroke-linejoin="round"/>
<path d="M607 259V55H249V259H607Z" stroke="#1F3969" stroke-width="4" stroke-miterlimit="10" stroke-linecap="round" stroke-linejoin="round"/>
<path d="M412 281H443" stroke="#1F3969" stroke-width="4" stroke-miterlimit="10" stroke-linecap="round" stroke-linejoin="round"/>
<path d="M502.639 194H281.361C276.213 194 272 189.79 272 184.646V11.3544C272 6.2095 276.213 2 281.361 2H502.639C507.787 2 512 6.2095 512 11.3544V184.762C512 189.907 507.787 194 502.639 194Z" fill="#2D425E"/>
<path d="M512 24H272V11.0256C272 6.06154 276.213 2 281.361 2H502.639C507.787 2 512 6.06154 512 11.0256V24Z" stroke="#1F3969" stroke-width="4" stroke-miterlimit="10" stroke-linecap="round" stroke-linejoin="round"/>
<path d="M512 29H272V11.2704C272 6.17168 276.213 2 281.361 2H502.639C507.787 2 512 6.17168 512 11.2704V29Z" fill="#D0DDF0"/>
<path d="M512 29H272V11.2704C272 6.17168 276.213 2 281.361 2H502.639C507.787 2 512 6.17168 512 11.2704V29Z" stroke="#1F3969" stroke-width="4" stroke-miterlimit="10" stroke-linecap="round" stroke-linejoin="round"/>
<path d="M512 29H272V11.2704C272 6.17168 276.213 2 281.361 2H502.639C507.787 2 512 6.17168 512 11.2704V29Z" stroke="#1F3969" stroke-width="4" stroke-miterlimit="10" stroke-linecap="round" stroke-linejoin="round"/>
<path d="M502.639 194H281.361C276.213 194 272 189.79 272 184.646V11.3544C272 6.2095 276.213 2 281.361 2H502.639C507.787 2 512 6.2095 512 11.3544V184.762C512 189.907 507.787 194 502.639 194Z" stroke="#1F3969" stroke-width="4" stroke-miterlimit="10" stroke-linecap="round" stroke-linejoin="round"/>
<path opacity="0.28" d="M617.667 235H482.333C477.2 235 473 230.801 473 225.67V82.3305C473 77.1987 477.2 73 482.333 73H617.667C622.8 73 627 77.1987 627 82.3305V225.67C627 230.918 622.8 235 617.667 235Z" fill="#1F3969" stroke="#1F3969" stroke-width="4" stroke-miterlimit="10" stroke-linecap="round" stroke-linejoin="round"/>
<path d="M627.606 227H491.394C486.227 227 482 222.775 482 217.612V73.388C482 68.2246 486.227 64 491.394 64H627.606C632.773 64 637 68.2246 637 73.388V217.612C637 222.893 632.773 227 627.606 227Z" fill="#2AA1FF"/>
<path d="M627.606 227H491.394C486.227 227 482 222.775 482 217.612V73.388C482 68.2246 486.227 64 491.394 64H627.606C632.773 64 637 68.2246 637 73.388V217.612C637 222.893 632.773 227 627.606 227Z" stroke="#1F3969" stroke-width="4" stroke-miterlimit="10" stroke-linecap="round" stroke-linejoin="round"/>
<path opacity="0.34" d="M606.952 109H512.048C508.675 109 506 106.346 506 103V94C506 90.6539 508.675 88 512.048 88H606.952C610.325 88 613 90.6539 613 94V103C613 106.346 610.325 109 606.952 109Z" stroke="white" stroke-width="2" stroke-miterlimit="10" stroke-linecap="round" stroke-linejoin="round"/>
<g opacity="0.34">
<path opacity="0.34" d="M565.234 143.167H511.948C508.559 143.167 505.871 140.479 505.871 137.09V127.975C505.871 124.587 508.559 121.899 511.948 121.899H565.234C568.623 121.899 571.31 124.587 571.31 127.975V137.09C571.193 140.479 568.506 143.167 565.234 143.167Z" stroke="white" stroke-width="2" stroke-miterlimit="10" stroke-linecap="round" stroke-linejoin="round"/>
<path opacity="0.34" d="M607.185 143.167H586.501C583.112 143.167 580.425 140.479 580.425 137.09V127.975C580.425 124.587 583.112 121.899 586.501 121.899H607.185C610.574 121.899 613.261 124.587 613.261 127.975V137.09C613.261 140.479 610.574 143.167 607.185 143.167Z" stroke="white" stroke-width="2" stroke-miterlimit="10" stroke-linecap="round" stroke-linejoin="round"/>
</g>
<path d="M506 179H613" stroke="white" stroke-width="2" stroke-miterlimit="10" stroke-linecap="round" stroke-linejoin="round"/>
<path d="M506 191H613" stroke="white" stroke-width="2" stroke-miterlimit="10" stroke-linecap="round" stroke-linejoin="round"/>
<path d="M506 204H571" stroke="white" stroke-width="2" stroke-miterlimit="10" stroke-linecap="round" stroke-linejoin="round"/>
<path d="M295.5 20C297.985 20 300 17.9851 300 15.5C300 13.0149 297.985 11 295.5 11C293.015 11 291 13.0149 291 15.5C291 17.9851 293.015 20 295.5 20Z" fill="#1F3969"/>
<path d="M312 20C314.761 20 317 17.9851 317 15.5C317 13.0149 314.761 11 312 11C309.239 11 307 13.0149 307 15.5C307 17.9851 309.239 20 312 20Z" fill="#1F3969"/>
<path d="M328.5 20C330.985 20 333 17.9851 333 15.5C333 13.0149 330.985 11 328.5 11C326.015 11 324 13.0149 324 15.5C324 17.9851 326.015 20 328.5 20Z" fill="#1F3969"/>
<path d="M410 50H425" stroke="white" stroke-width="4" stroke-miterlimit="10" stroke-linecap="round" stroke-linejoin="round"/>
<path d="M333 50H399" stroke="#7BFFA0" stroke-width="4" stroke-miterlimit="10" stroke-linecap="round" stroke-linejoin="round"/>
<path d="M300 50H324" stroke="#9169FF" stroke-width="4" stroke-miterlimit="10" stroke-linecap="round" stroke-linejoin="round"/>
<path d="M331 165H381" stroke="#9169FF" stroke-width="4" stroke-miterlimit="10" stroke-linecap="round" stroke-linejoin="round"/>
<path d="M300 165H317" stroke="#7BFFA0" stroke-width="4" stroke-miterlimit="10" stroke-linecap="round" stroke-linejoin="round"/>
<path d="M399 65H408" stroke="white" stroke-width="4" stroke-miterlimit="10" stroke-linecap="round" stroke-linejoin="round"/>
<path d="M356 65H387" stroke="#9169FF" stroke-width="4" stroke-miterlimit="10" stroke-linecap="round" stroke-linejoin="round"/>
<path d="M312 65H344" stroke="#FFC47D" stroke-width="4" stroke-miterlimit="10" stroke-linecap="round" stroke-linejoin="round"/>
<path d="M362 79H390" stroke="white" stroke-width="4" stroke-miterlimit="10" stroke-linecap="round" stroke-linejoin="round"/>
<path d="M327 79H353" stroke="#FF5757" stroke-width="4" stroke-miterlimit="10" stroke-linecap="round" stroke-linejoin="round"/>
<path d="M366 94H372" stroke="white" stroke-width="4" stroke-miterlimit="10" stroke-linecap="round" stroke-linejoin="round"/>
<path d="M343 94H356" stroke="#9169FF" stroke-width="4" stroke-miterlimit="10" stroke-linecap="round" stroke-linejoin="round"/>
<path d="M312 94H333" stroke="#7BFFA0" stroke-width="4" stroke-miterlimit="10" stroke-linecap="round" stroke-linejoin="round"/>
<path d="M357 108H394" stroke="#FFC47D" stroke-width="4" stroke-miterlimit="10" stroke-linecap="round" stroke-linejoin="round"/>
<path d="M312 108H345" stroke="#FF5757" stroke-width="4" stroke-miterlimit="10" stroke-linecap="round" stroke-linejoin="round"/>
<path d="M400 122H420" stroke="#9169FF" stroke-width="4" stroke-miterlimit="10" stroke-linecap="round" stroke-linejoin="round"/>
<path d="M357 122H389" stroke="#FF5757" stroke-width="4" stroke-miterlimit="10" stroke-linecap="round" stroke-linejoin="round"/>
<path d="M327 122H345" stroke="#7BFFA0" stroke-width="4" stroke-miterlimit="10" stroke-linecap="round" stroke-linejoin="round"/>
<path d="M372 137H389" stroke="white" stroke-width="4" stroke-miterlimit="10" stroke-linecap="round" stroke-linejoin="round"/>
<path d="M327 137H359" stroke="#9169FF" stroke-width="4" stroke-miterlimit="10" stroke-linecap="round" stroke-linejoin="round"/>
<path d="M418 151H438" stroke="white" stroke-width="4" stroke-miterlimit="10" stroke-linecap="round" stroke-linejoin="round"/>
<path d="M356 151H407" stroke="#FFC47D" stroke-width="4" stroke-miterlimit="10" stroke-linecap="round" stroke-linejoin="round"/>
<path d="M312 151H344" stroke="white" stroke-width="4" stroke-miterlimit="10" stroke-linecap="round" stroke-linejoin="round"/>
<path d="M64 337H316" stroke="#1F3969" stroke-width="4" stroke-miterlimit="10" stroke-linecap="round" stroke-linejoin="round"/>
<path d="M64 346H316" stroke="#1F3969" stroke-width="4" stroke-miterlimit="10" stroke-linecap="round" stroke-linejoin="round"/>
<path d="M318 329H61C62.5186 332.649 63.3364 337.211 63.3364 342C63.3364 346.789 62.5186 351.237 61 355H317.883C316.365 351.351 315.547 346.789 315.547 342C315.664 337.097 316.481 332.649 318 329Z" stroke="#1F3969" stroke-width="4" stroke-miterlimit="10" stroke-linecap="round" stroke-linejoin="round"/>
<path d="M664.232 233L653 234.342L662.768 319L674 317.658L664.232 233Z" fill="#FFA364"/>
<path d="M664.023 234L653 235.211L653.977 243L665 241.789L664.023 234Z" fill="#2AA1FF"/>
<path d="M664.023 234L653 235.211L653.977 243L665 241.789L664.023 234Z" stroke="#1F3969" stroke-width="4" stroke-miterlimit="10" stroke-linecap="round" stroke-linejoin="round"/>
<path d="M664.232 233L653 234.342L662.768 319L674 317.658L664.232 233Z" stroke="#1F3969" stroke-width="4" stroke-miterlimit="10" stroke-linecap="round" stroke-linejoin="round"/>
<path d="M695 250.244L683.923 249L675 333.755L686.077 335L695 250.244Z" fill="#FF5252"/>
<path d="M695 250.244L683.923 249L675 333.755L686.077 335L695 250.244Z" stroke="#1F3969" stroke-width="4" stroke-miterlimit="10" stroke-linecap="round" stroke-linejoin="round"/>
<path d="M696 251.132L683.987 250L683 257.866L695.013 259L696 251.132Z" fill="#2D425E"/>
<path d="M696 251.132L683.987 250L683 257.866L695.013 259L696 251.132Z" stroke="#1F3969" stroke-width="4" stroke-miterlimit="10" stroke-linecap="round" stroke-linejoin="round"/>
<path d="M702.507 363H656.493L649 292H710L702.507 363Z" fill="#6567C3"/>
<path d="M649 292L649.117 293.297H695.599L688.223 363H702.507L710 292H649Z" fill="#6567C3"/>
<path d="M702.507 363H656.493L649 292H710L702.507 363Z" stroke="#1F3969" stroke-width="4" stroke-miterlimit="10" stroke-linecap="round" stroke-linejoin="round"/>
<path d="M69.7653 292.47V294.525H66.9753V303H64.4103V294.525H61.6203V292.47H69.7653ZM79.1676 298.68C79.1676 298.92 79.1526 299.17 79.1226 299.43H73.3176C73.3576 299.95 73.5226 300.35 73.8126 300.63C74.1126 300.9 74.4776 301.035 74.9076 301.035C75.5476 301.035 75.9926 300.765 76.2426 300.225H78.9726C78.8326 300.775 78.5776 301.27 78.2076 301.71C77.8476 302.15 77.3926 302.495 76.8426 302.745C76.2926 302.995 75.6776 303.12 74.9976 303.12C74.1776 303.12 73.4476 302.945 72.8076 302.595C72.1676 302.245 71.6676 301.745 71.3076 301.095C70.9476 300.445 70.7676 299.685 70.7676 298.815C70.7676 297.945 70.9426 297.185 71.2926 296.535C71.6526 295.885 72.1526 295.385 72.7926 295.035C73.4326 294.685 74.1676 294.51 74.9976 294.51C75.8076 294.51 76.5276 294.68 77.1576 295.02C77.7876 295.36 78.2776 295.845 78.6276 296.475C78.9876 297.105 79.1676 297.84 79.1676 298.68ZM76.5426 298.005C76.5426 297.565 76.3926 297.215 76.0926 296.955C75.7926 296.695 75.4176 296.565 74.9676 296.565C74.5376 296.565 74.1726 296.69 73.8726 296.94C73.5826 297.19 73.4026 297.545 73.3326 298.005H76.5426ZM83.3107 296.025C83.6107 295.565 83.9857 295.205 84.4357 294.945C84.8857 294.675 85.3857 294.54 85.9357 294.54V297.255H85.2307C84.5907 297.255 84.1107 297.395 83.7907 297.675C83.4707 297.945 83.3107 298.425 83.3107 299.115V303H80.7457V294.63H83.3107V296.025ZM98.0667 294.54C99.1067 294.54 99.9317 294.855 100.542 295.485C101.162 296.115 101.472 296.99 101.472 298.11V303H98.9217V298.455C98.9217 297.915 98.7767 297.5 98.4867 297.21C98.2067 296.91 97.8167 296.76 97.3167 296.76C96.8167 296.76 96.4217 296.91 96.1317 297.21C95.8517 297.5 95.7117 297.915 95.7117 298.455V303H93.1617V298.455C93.1617 297.915 93.0167 297.5 92.7267 297.21C92.4467 296.91 92.0567 296.76 91.5567 296.76C91.0567 296.76 90.6617 296.91 90.3717 297.21C90.0917 297.5 89.9517 297.915 89.9517 298.455V303H87.3867V294.63H89.9517V295.68C90.2117 295.33 90.5517 295.055 90.9717 294.855C91.3917 294.645 91.8667 294.54 92.3967 294.54C93.0267 294.54 93.5867 294.675 94.0767 294.945C94.5767 295.215 94.9667 295.6 95.2467 296.1C95.5367 295.64 95.9317 295.265 96.4317 294.975C96.9317 294.685 97.4767 294.54 98.0667 294.54ZM106.896 303.12C106.166 303.12 105.516 302.995 104.946 302.745C104.376 302.495 103.926 302.155 103.596 301.725C103.266 301.285 103.081 300.795 103.041 300.255H105.576C105.606 300.545 105.741 300.78 105.981 300.96C106.221 301.14 106.516 301.23 106.866 301.23C107.186 301.23 107.431 301.17 107.601 301.05C107.781 300.92 107.871 300.755 107.871 300.555C107.871 300.315 107.746 300.14 107.496 300.03C107.246 299.91 106.841 299.78 106.281 299.64C105.681 299.5 105.181 299.355 104.781 299.205C104.381 299.045 104.036 298.8 103.746 298.47C103.456 298.13 103.311 297.675 103.311 297.105C103.311 296.625 103.441 296.19 103.701 295.8C103.971 295.4 104.361 295.085 104.871 294.855C105.391 294.625 106.006 294.51 106.716 294.51C107.766 294.51 108.591 294.77 109.191 295.29C109.801 295.81 110.151 296.5 110.241 297.36H107.871C107.831 297.07 107.701 296.84 107.481 296.67C107.271 296.5 106.991 296.415 106.641 296.415C106.341 296.415 106.111 296.475 105.951 296.595C105.791 296.705 105.711 296.86 105.711 297.06C105.711 297.3 105.836 297.48 106.086 297.6C106.346 297.72 106.746 297.84 107.286 297.96C107.906 298.12 108.411 298.28 108.801 298.44C109.191 298.59 109.531 298.84 109.821 299.19C110.121 299.53 110.276 299.99 110.286 300.57C110.286 301.06 110.146 301.5 109.866 301.89C109.596 302.27 109.201 302.57 108.681 302.79C108.171 303.01 107.576 303.12 106.896 303.12ZM119.294 303.12C118.474 303.12 117.734 302.945 117.074 302.595C116.424 302.245 115.909 301.745 115.529 301.095C115.159 300.445 114.974 299.685 114.974 298.815C114.974 297.955 115.164 297.2 115.544 296.55C115.924 295.89 116.444 295.385 117.104 295.035C117.764 294.685 118.504 294.51 119.324 294.51C120.144 294.51 120.884 294.685 121.544 295.035C122.204 295.385 122.724 295.89 123.104 296.55C123.484 297.2 123.674 297.955 123.674 298.815C123.674 299.675 123.479 300.435 123.089 301.095C122.709 301.745 122.184 302.245 121.514 302.595C120.854 302.945 120.114 303.12 119.294 303.12ZM119.294 300.9C119.784 300.9 120.199 300.72 120.539 300.36C120.889 300 121.064 299.485 121.064 298.815C121.064 298.145 120.894 297.63 120.554 297.27C120.224 296.91 119.814 296.73 119.324 296.73C118.824 296.73 118.409 296.91 118.079 297.27C117.749 297.62 117.584 298.135 117.584 298.815C117.584 299.485 117.744 300 118.064 300.36C118.394 300.72 118.804 300.9 119.294 300.9ZM129.459 296.76H128.079V303H125.514V296.76H124.584V294.63H125.514V294.39C125.514 293.36 125.809 292.58 126.399 292.05C126.989 291.51 127.854 291.24 128.994 291.24C129.184 291.24 129.324 291.245 129.414 291.255V293.43C128.924 293.4 128.579 293.47 128.379 293.64C128.179 293.81 128.079 294.115 128.079 294.555V294.63H129.459V296.76ZM138.103 303.105C137.333 303.105 136.643 302.98 136.033 302.73C135.423 302.48 134.933 302.11 134.563 301.62C134.203 301.13 134.013 300.54 133.993 299.85H136.723C136.763 300.24 136.898 300.54 137.128 300.75C137.358 300.95 137.658 301.05 138.028 301.05C138.408 301.05 138.708 300.965 138.928 300.795C139.148 300.615 139.258 300.37 139.258 300.06C139.258 299.8 139.168 299.585 138.988 299.415C138.818 299.245 138.603 299.105 138.343 298.995C138.093 298.885 137.733 298.76 137.263 298.62C136.583 298.41 136.028 298.2 135.598 297.99C135.168 297.78 134.798 297.47 134.488 297.06C134.178 296.65 134.023 296.115 134.023 295.455C134.023 294.475 134.378 293.71 135.088 293.16C135.798 292.6 136.723 292.32 137.863 292.32C139.023 292.32 139.958 292.6 140.668 293.16C141.378 293.71 141.758 294.48 141.808 295.47H139.033C139.013 295.13 138.888 294.865 138.658 294.675C138.428 294.475 138.133 294.375 137.773 294.375C137.463 294.375 137.213 294.46 137.023 294.63C136.833 294.79 136.738 295.025 136.738 295.335C136.738 295.675 136.898 295.94 137.218 296.13C137.538 296.32 138.038 296.525 138.718 296.745C139.398 296.975 139.948 297.195 140.368 297.405C140.798 297.615 141.168 297.92 141.478 298.32C141.788 298.72 141.943 299.235 141.943 299.865C141.943 300.465 141.788 301.01 141.478 301.5C141.178 301.99 140.738 302.38 140.158 302.67C139.578 302.96 138.893 303.105 138.103 303.105ZM151.637 298.68C151.637 298.92 151.622 299.17 151.592 299.43H145.787C145.827 299.95 145.992 300.35 146.282 300.63C146.582 300.9 146.947 301.035 147.377 301.035C148.017 301.035 148.462 300.765 148.712 300.225H151.442C151.302 300.775 151.047 301.27 150.677 301.71C150.317 302.15 149.862 302.495 149.312 302.745C148.762 302.995 148.147 303.12 147.467 303.12C146.647 303.12 145.917 302.945 145.277 302.595C144.637 302.245 144.137 301.745 143.777 301.095C143.417 300.445 143.237 299.685 143.237 298.815C143.237 297.945 143.412 297.185 143.762 296.535C144.122 295.885 144.622 295.385 145.262 295.035C145.902 294.685 146.637 294.51 147.467 294.51C148.277 294.51 148.997 294.68 149.627 295.02C150.257 295.36 150.747 295.845 151.097 296.475C151.457 297.105 151.637 297.84 151.637 298.68ZM149.012 298.005C149.012 297.565 148.862 297.215 148.562 296.955C148.262 296.695 147.887 296.565 147.437 296.565C147.007 296.565 146.642 296.69 146.342 296.94C146.052 297.19 145.872 297.545 145.802 298.005H149.012ZM155.78 296.025C156.08 295.565 156.455 295.205 156.905 294.945C157.355 294.675 157.855 294.54 158.405 294.54V297.255H157.7C157.06 297.255 156.58 297.395 156.26 297.675C155.94 297.945 155.78 298.425 155.78 299.115V303H153.215V294.63H155.78V296.025ZM163.621 300.6L165.436 294.63H168.166L165.196 303H162.031L159.061 294.63H161.806L163.621 300.6ZM170.761 293.76C170.311 293.76 169.941 293.63 169.651 293.37C169.371 293.1 169.231 292.77 169.231 292.38C169.231 291.98 169.371 291.65 169.651 291.39C169.941 291.12 170.311 290.985 170.761 290.985C171.201 290.985 171.561 291.12 171.841 291.39C172.131 291.65 172.276 291.98 172.276 292.38C172.276 292.77 172.131 293.1 171.841 293.37C171.561 293.63 171.201 293.76 170.761 293.76ZM172.036 294.63V303H169.471V294.63H172.036ZM173.61 298.815C173.61 297.945 173.785 297.185 174.135 296.535C174.495 295.885 174.99 295.385 175.62 295.035C176.26 294.685 176.99 294.51 177.81 294.51C178.86 294.51 179.735 294.785 180.435 295.335C181.145 295.885 181.61 296.66 181.83 297.66H179.1C178.87 297.02 178.425 296.7 177.765 296.7C177.295 296.7 176.92 296.885 176.64 297.255C176.36 297.615 176.22 298.135 176.22 298.815C176.22 299.495 176.36 300.02 176.64 300.39C176.92 300.75 177.295 300.93 177.765 300.93C178.425 300.93 178.87 300.61 179.1 299.97H181.83C181.61 300.95 181.145 301.72 180.435 302.28C179.725 302.84 178.85 303.12 177.81 303.12C176.99 303.12 176.26 302.945 175.62 302.595C174.99 302.245 174.495 301.745 174.135 301.095C173.785 300.445 173.61 299.685 173.61 298.815ZM191.317 298.68C191.317 298.92 191.302 299.17 191.272 299.43H185.467C185.507 299.95 185.672 300.35 185.962 300.63C186.262 300.9 186.627 301.035 187.057 301.035C187.697 301.035 188.142 300.765 188.392 300.225H191.122C190.982 300.775 190.727 301.27 190.357 301.71C189.997 302.15 189.542 302.495 188.992 302.745C188.442 302.995 187.827 303.12 187.147 303.12C186.327 303.12 185.597 302.945 184.957 302.595C184.317 302.245 183.817 301.745 183.457 301.095C183.097 300.445 182.917 299.685 182.917 298.815C182.917 297.945 183.092 297.185 183.442 296.535C183.802 295.885 184.302 295.385 184.942 295.035C185.582 294.685 186.317 294.51 187.147 294.51C187.957 294.51 188.677 294.68 189.307 295.02C189.937 295.36 190.427 295.845 190.777 296.475C191.137 297.105 191.317 297.84 191.317 298.68ZM188.692 298.005C188.692 297.565 188.542 297.215 188.242 296.955C187.942 296.695 187.567 296.565 187.117 296.565C186.687 296.565 186.322 296.69 186.022 296.94C185.732 297.19 185.552 297.545 185.482 298.005H188.692Z" fill="white"/>
</svg>
